<!-- Save this content as react.svg -->
<svg
  xmlns="http://www.w3.org/2000/svg"
  viewBox="0 0 841.9 595.3"
  width="100"
  height="100"
>
  <g fill="#61DAFB">
    <path d="M666.3 296.5c0 73.9-59.8 133.7-133.7 133.7S398.9 370.4 398.9 296.5 458.7 162.8 532.6 162.8 666.3 222.6 666.3 296.5zM532.6 120.9c-48.2 0-93.8 19.2-128.1 53.6-34.3 34.3-53.6 79.9-53.6 128.1s19.2 93.8 53.6 128.1c34.3 34.3 79.9 53.6 128.1 53.6 48.2 0 93.8-19.2 128.1-53.6 34.3-34.3 53.6-79.9 53.6-128.1s-19.2-93.8-53.6-128.1c-34.4-34.3-79.9-53.6-128.1-53.6zm0-60.7c-27.6 0-54.4 2.1-81.1 6.4-9.1-27.1-19.3-52.9-30.5-77.1 55.7-9.7 112.3-14.6 168.7-14.6 56.4 0 113 4.9 168.7 14.6-11.2 24.2-21.4 50-30.5 77.1-26.7-4.3-53.5-6.4-81.1-6.4zM254.3 438.8c-9.1 27.1-19.3 52.9-30.5 77.1-55.7-9.7-112.3-14.6-168.7-14.6-56.4 0-113 4.9-168.7 14.6 11.2 24.2 21.4 50 30.5 77.1 26.7-4.3 53.5-6.4 81.1-6.4 27.6 0 54.4 2.1 81.1 6.4 9.1-27.1 19.3-52.9 30.5-77.1-26.7-4.3-53.5-6.4-81.1-6.4-27.6 0-54.4 2.1-81.1 6.4zm157.2 65.3c34.3-34.3 79.9-53.6 128.1-53.6s93.8 19.2 128.1 53.6c34.3 34.3 53.6 79.9 53.6 128.1s-19.2 93.8-53.6 128.1c-34.3 34.3-79.9 53.6-128.1 53.6-48.2 0-93.8-19.2-128.1-53.6-34.3-34.3-53.6-79.9-53.6-128.1s19.2-93.8 53.6-128.1z"></path>
  </g>
</svg>
